<svg width="24" height="24" viewBox="0 0 24 24" fill="none" xmlns="http://www.w3.org/2000/svg">
<path d="M13.6 21.6C13.6 21.8209 13.7791 22 14 22C14.2209 22 14.4 21.8209 14.4 21.6V20.0875C14.4 16.8781 17.0375 14.2955 20.2462 14.3631L21.5917 14.3914C21.8158 14.3961 22 14.2157 22 13.9916C22 13.774 21.826 13.5963 21.6085 13.5918L20.0939 13.5599C16.93 13.4933 14.4 10.9094 14.4 7.74488V6.4C14.4 6.17909 14.2209 6 14 6C13.7791 6 13.6 6.17909 13.6 6.4V7.74488C13.6 10.9094 11.07 13.4933 7.90614 13.5599L6.39149 13.5918C6.17396 13.5963 6 13.774 6 13.9916C6 14.2157 6.18422 14.3961 6.40833 14.3914L7.75385 14.3631C10.9625 14.2955 13.6 16.8781 13.6 20.0875V21.6Z" fill="#DAFF00"/>
<path d="M6.8 10.8C6.8 10.9105 6.88954 11 7 11C7.11046 11 7.2 10.9105 7.2 10.8V10.0437C7.2 8.43905 8.51876 7.14776 10.1231 7.18154L10.7958 7.1957C10.9079 7.19806 11 7.10787 11 6.99579C11 6.887 10.913 6.79817 10.8043 6.79588L10.0469 6.77994C8.46501 6.74663 7.2 5.45471 7.2 3.87244V3.2C7.2 3.08954 7.11046 3 7 3C6.88954 3 6.8 3.08954 6.8 3.2V3.87244C6.8 5.45471 5.53499 6.74663 3.95307 6.77994L3.19575 6.79588C3.08698 6.79817 3 6.887 3 6.99579C3 7.10787 3.09211 7.19806 3.20416 7.1957L3.87692 7.18154C5.48124 7.14776 6.8 8.43905 6.8 10.0437V10.8Z" fill="#DAFF00"/>
</svg>
